<?xml version="1.0" encoding="utf-8"?>
<!-- Generator: Adobe Illustrator 27.6.1, SVG Export Plug-In . SVG Version: 6.00 Build 0)  -->
<svg version="1.1" id="Layer_1" xmlns="http://www.w3.org/2000/svg" xmlns:xlink="http://www.w3.org/1999/xlink" x="0px" y="0px"
	 viewBox="0 0 1920 1080" style="enable-background:new 0 0 1920 1080;" xml:space="preserve">
<style type="text/css">
	.st0{fill:#FFFFFF;}
</style>
<path class="st0" d="M817.41,112.92c-2.53,0-5.06,0-7.6,0c-2.28,0-4.22,1.77-4.22,3.87c0,13.24,0,26.47,0,39.71
	c-14.46-13.34-28.69-27.08-43.92-39.6c-7.22-5.93-19.56-2.37-19.52,7.3c0.02,4.56,3.37,7.35,6.59,10.27
	c10.34,9.34,20.68,18.68,31.02,28.02c8.61,7.78,17.22,15.56,25.83,23.34c0,10.07,0,20.14,0,30.2
	c-14.74-13.8-29.23-28.03-44.79-40.97c-7.16-5.96-19.55-2.37-19.55,7.24c0,4.51,3.27,7.32,6.45,10.23
	c10.65,9.76,21.3,19.52,31.95,29.28c8.65,7.92,17.29,15.85,25.94,23.77c0,9.8,0,19.59,0,29.39c-14.44-13.52-28.64-27.46-43.89-40.13
	c-7.18-5.96-19.57-2.41-19.56,7.24c0,4.53,3.33,7.35,6.52,10.27c10.48,9.61,20.97,19.21,31.45,28.82
	c8.49,7.78,16.98,15.57,25.48,23.35c0,10,0,19.99,0,29.99c-14.46-12.89-28.93-25.78-43.39-38.67c-3.39-3.02-6.74-5.68-11.94-5.08
	c-1.52,0.18-2.86,0.6-4.04,1.21c-1.17,0.63-2.24,1.49-3.17,2.6c-3.17,3.83-2.33,7.81-1.17,12.01c4.95,17.92,9.9,35.85,14.85,53.77
	c-9.45-5-18.89-10-28.34-14.99c-3.11-10.63-6.22-21.26-9.33-31.9c-3.84-13.12-7.68-26.24-11.51-39.37
	c-1.17-3.99-2.17-8.04-6.45-10.31c-9.12-4.83-18.66,3.23-16.62,11.91c4.34,18.43,10.42,36.67,15.98,54.89
	c-9.26-4.9-18.52-9.79-27.77-14.69c-3.17-10.82-6.33-21.65-9.5-32.47c-3.9-13.33-7.8-26.66-11.7-39.99
	c-1.16-3.98-2.18-7.98-6.44-10.23c-9.08-4.8-18.66,3.23-16.62,11.89c4.45,18.82,10.65,37.43,16.32,56.03
	c-9.51-5.03-19.03-10.07-28.54-15.1c-3.05-10.72-6.09-21.45-9.14-32.17c-3.66-12.87-7.32-25.75-10.98-38.63
	c-1.14-4.01-2.11-8.07-6.4-10.36c-9.12-4.87-18.66,3.15-16.66,11.84c4.22,18.35,10.09,36.51,15.46,54.65
	c-12.51-6.62-25.02-13.24-37.53-19.85c-1.98-1.05-4.62-0.4-5.76,1.42c-1.27,2.01-2.53,4.02-3.8,6.03c-1.27,2.01-2.53,4.02-3.8,6.03
	c-1.14,1.81-0.44,4.23,1.54,5.28c12.51,6.62,25.02,13.24,37.53,19.85c-19.84,4.81-39.94,9.23-59.38,15.06
	c-9.22,2.76-12.02,14.34-2.86,19.14c4.31,2.26,8.63,1,13-0.1c14-3.53,28-7.07,42-10.6c11.66-2.94,23.31-5.89,34.97-8.83
	c9.52,5.03,19.03,10.07,28.54,15.1c-20.41,4.8-41.11,9.18-61.11,15.06c-9.21,2.71-12.01,14.33-2.93,19.13
	c4.26,2.26,8.55,1.06,12.89,0c14.55-3.57,29.1-7.14,43.64-10.72c11.81-2.9,23.63-5.8,35.44-8.7c9.26,4.9,18.52,9.8,27.77,14.69
	c-20,4.7-40.27,8.99-59.86,14.77c-9.22,2.72-12.07,14.32-2.94,19.14c4.29,2.26,8.61,1.03,12.97-0.04
	c14.32-3.51,28.64-7.03,42.96-10.55c11.6-2.85,23.2-5.69,34.81-8.54c9.45,5,18.89,9.99,28.34,14.99
	c-19.41,5.03-38.83,10.07-58.24,15.1c-4.55,1.18-8.73,2.51-10.77,6.94c-0.59,1.29-0.87,2.57-0.87,3.81
	c0.01,1.24,0.28,2.52,0.87,3.82c2.03,4.43,6.22,5.76,10.77,6.94c19.41,5.03,38.83,10.06,58.24,15.1c-9.45,5-18.89,10-28.34,14.99
	c-11.6-2.85-23.2-5.7-34.81-8.55c-14.32-3.52-28.64-7.03-42.96-10.55c-4.36-1.07-8.68-2.3-12.97-0.04
	c-9.12,4.82-6.28,16.43,2.94,19.14c19.59,5.77,39.86,10.07,59.86,14.76c-9.26,4.9-18.52,9.79-27.77,14.69
	c-11.81-2.9-23.63-5.8-35.44-8.7c-14.55-3.57-29.1-7.14-43.64-10.71c-4.34-1.07-8.63-2.26-12.89,0c-9.08,4.8-6.28,16.42,2.93,19.13
	c20.01,5.88,40.7,10.26,61.11,15.06c-9.51,5.03-19.03,10.07-28.54,15.1c-11.66-2.94-23.31-5.89-34.97-8.83c-14-3.53-28-7.07-42-10.6
	c-4.36-1.1-8.68-2.36-13-0.1c-9.16,4.8-6.35,16.38,2.86,19.14c19.45,5.83,39.54,10.25,59.38,15.06
	c-12.51,6.62-25.02,13.24-37.53,19.86c-1.98,1.05-2.68,3.47-1.54,5.28c1.26,2.01,2.53,4.02,3.8,6.03c1.27,2.01,2.53,4.02,3.8,6.03
	c1.14,1.81,3.78,2.46,5.76,1.42c12.51-6.62,25.02-13.24,37.53-19.86c-5.38,18.15-11.24,36.31-15.46,54.65
	c-2,8.7,7.54,16.71,16.66,11.85c4.29-2.29,5.26-6.35,6.4-10.37c3.66-12.88,7.32-25.75,10.98-38.63c3.05-10.72,6.09-21.45,9.14-32.17
	c9.51-5.03,19.03-10.07,28.54-15.1c-5.67,18.6-11.88,37.21-16.32,56.03c-2.04,8.66,7.54,16.7,16.62,11.89
	c4.26-2.26,5.28-6.26,6.44-10.23c3.9-13.33,7.8-26.66,11.7-39.99c3.16-10.82,6.33-21.65,9.5-32.47c9.26-4.9,18.52-9.79,27.77-14.69
	c-5.56,18.22-11.64,36.46-15.98,54.89c-2.04,8.68,7.5,16.74,16.62,11.91c4.28-2.27,5.28-6.32,6.45-10.31
	c3.84-13.12,7.68-26.24,11.51-39.37c3.11-10.63,6.22-21.26,9.33-31.89c9.44-5,18.89-10,28.34-14.99
	c-4.95,17.92-9.9,35.84-14.85,53.77c-1.16,4.2-2,8.18,1.17,12.01c0.92,1.12,2,1.97,3.17,2.6c1.18,0.62,2.53,1.04,4.04,1.21
	c5.2,0.6,8.55-2.06,11.94-5.08c14.46-12.89,28.93-25.78,43.39-38.67c0,10,0,19.99,0,29.98c-8.49,7.78-16.99,15.57-25.48,23.35
	c-10.48,9.61-20.97,19.21-31.45,28.82c-3.19,2.92-6.52,5.74-6.52,10.27c0,9.65,12.38,13.2,19.56,7.24
	c15.25-12.66,29.45-26.6,43.89-40.13c0,9.79,0,19.59,0,29.39c-8.65,7.92-17.3,15.85-25.94,23.77c-10.65,9.76-21.3,19.52-31.95,29.28
	c-3.18,2.91-6.45,5.72-6.45,10.23c0,9.61,12.38,13.19,19.55,7.24c15.56-12.94,30.05-27.17,44.79-40.97c0,10.07,0,20.13,0,30.2
	c-8.61,7.78-17.22,15.56-25.83,23.34c-10.34,9.34-20.68,18.68-31.02,28.03c-3.22,2.91-6.57,5.71-6.59,10.26
	c-0.04,9.67,12.3,13.23,19.52,7.3c15.23-12.52,29.46-26.26,43.92-39.6c0,13.24,0,26.47,0,39.71c0,2.09,1.94,3.87,4.22,3.87
	c2.53,0,5.06,0,7.6,0s5.07,0,7.6,0c2.28,0,4.22-1.77,4.22-3.87c0-13.24,0-26.47,0-39.71c14.46,13.34,28.69,27.08,43.92,39.6
	c7.22,5.93,19.56,2.37,19.52-7.3c-0.02-4.55-3.37-7.35-6.59-10.26c-10.34-9.34-20.68-18.68-31.02-28.03
	c-8.61-7.78-17.22-15.56-25.83-23.34c0-10.07,0-20.13,0-30.2c14.74,13.8,29.23,28.03,44.79,40.97c7.16,5.96,19.55,2.37,19.55-7.24
	c0-4.51-3.27-7.32-6.45-10.23c-10.65-9.76-21.3-19.52-31.95-29.28c-8.65-7.93-17.3-15.85-25.94-23.77c0-9.79,0-19.59,0-29.39
	c14.44,13.52,28.64,27.46,43.89,40.13c7.18,5.96,19.57,2.41,19.56-7.24c0-4.53-3.33-7.35-6.52-10.27
	c-10.48-9.61-20.97-19.21-31.45-28.82c-8.49-7.78-16.99-15.57-25.48-23.35c0-10,0-19.99,0-29.98
	c14.46,12.89,28.93,25.78,43.39,38.67c3.39,3.02,6.74,5.68,11.94,5.08c1.52-0.18,2.86-0.6,4.04-1.21c1.17-0.63,2.24-1.49,3.17-2.6
	c3.17-3.83,2.33-7.81,1.17-12.01c-4.95-17.92-9.9-35.84-14.85-53.77c9.45,5,18.89,10,28.34,14.99c3.11,10.63,6.22,21.26,9.33,31.89
	c3.84,13.12,7.68,26.24,11.51,39.37c1.17,3.99,2.16,8.04,6.45,10.31c9.12,4.83,18.66-3.23,16.62-11.91
	c-4.34-18.43-10.42-36.67-15.98-54.89c9.26,4.9,18.52,9.79,27.77,14.69c3.17,10.82,6.33,21.65,9.5,32.47
	c3.9,13.33,7.8,26.66,11.7,39.99c1.16,3.98,2.18,7.98,6.44,10.23c9.08,4.8,18.66-3.23,16.61-11.89
	c-4.45-18.82-10.65-37.43-16.32-56.03c9.51,5.03,19.03,10.07,28.54,15.1c3.05,10.72,6.09,21.44,9.14,32.17
	c3.66,12.88,7.32,25.75,10.98,38.63c1.14,4.01,2.11,8.07,6.4,10.37c9.12,4.87,18.66-3.15,16.66-11.85
	c-4.22-18.35-10.08-36.51-15.46-54.65c12.51,6.62,25.02,13.24,37.53,19.86c1.98,1.05,4.63,0.39,5.76-1.42
	c1.27-2.01,2.53-4.02,3.8-6.03c1.27-2.01,2.53-4.02,3.8-6.03c1.14-1.81,0.43-4.23-1.54-5.28c-12.51-6.62-25.02-13.24-37.53-19.86
	c19.84-4.8,39.94-9.23,59.39-15.06c9.22-2.76,12.02-14.34,2.86-19.14c-4.31-2.26-8.63-1-13,0.1c-14,3.53-28,7.07-41.99,10.6
	c-11.66,2.94-23.32,5.89-34.97,8.83c-9.51-5.03-19.03-10.07-28.54-15.1c20.41-4.8,41.11-9.18,61.11-15.06
	c9.21-2.71,12.01-14.33,2.93-19.13c-4.26-2.26-8.55-1.06-12.89,0c-14.55,3.57-29.1,7.14-43.64,10.71c-11.81,2.9-23.63,5.8-35.44,8.7
	c-9.26-4.9-18.52-9.79-27.77-14.69c20-4.7,40.27-8.99,59.86-14.76c9.22-2.72,12.07-14.32,2.94-19.14
	c-4.29-2.26-8.61-1.03-12.97,0.04c-14.32,3.52-28.64,7.03-42.96,10.55c-11.6,2.85-23.21,5.7-34.81,8.55
	c-9.45-5-18.89-10-28.34-14.99c19.41-5.03,38.83-10.06,58.24-15.1c4.55-1.18,8.73-2.51,10.77-6.94c0.59-1.29,0.87-2.57,0.88-3.82
	c-0.01-1.24-0.28-2.52-0.88-3.81c-2.03-4.43-6.22-5.76-10.77-6.94c-19.41-5.03-38.83-10.06-58.24-15.1
	c9.44-5,18.89-9.99,28.34-14.99c11.6,2.85,23.2,5.69,34.81,8.54c14.32,3.52,28.64,7.03,42.96,10.55c4.36,1.07,8.68,2.3,12.97,0.04
	c9.12-4.82,6.28-16.43-2.94-19.14c-19.59-5.77-39.87-10.07-59.86-14.77c9.26-4.9,18.52-9.79,27.77-14.69
	c11.81,2.9,23.63,5.8,35.44,8.7c14.55,3.57,29.1,7.14,43.64,10.72c4.34,1.07,8.63,2.26,12.89,0c9.08-4.8,6.28-16.42-2.93-19.13
	c-20.01-5.88-40.7-10.27-61.11-15.06c9.51-5.03,19.03-10.07,28.54-15.1c11.66,2.94,23.32,5.89,34.97,8.83
	c14,3.53,28,7.07,41.99,10.6c4.36,1.1,8.68,2.36,13,0.1c9.16-4.8,6.35-16.38-2.86-19.14c-19.45-5.83-39.54-10.25-59.39-15.06
	c12.51-6.62,25.02-13.24,37.53-19.85c1.98-1.05,2.68-3.47,1.54-5.28c-1.27-2.01-2.53-4.02-3.8-6.03c-1.27-2.01-2.53-4.02-3.8-6.03
	c-1.14-1.81-3.78-2.46-5.76-1.42c-12.51,6.62-25.02,13.24-37.53,19.85c5.38-18.15,11.24-36.31,15.46-54.65
	c2-8.7-7.54-16.71-16.66-11.84c-4.3,2.29-5.26,6.35-6.4,10.36c-3.66,12.88-7.32,25.75-10.98,38.63
	c-3.05,10.72-6.09,21.45-9.14,32.17c-9.51,5.03-19.03,10.07-28.54,15.1c5.67-18.6,11.87-37.21,16.32-56.03
	c2.05-8.66-7.53-16.7-16.61-11.89c-4.26,2.26-5.28,6.26-6.44,10.23c-3.9,13.33-7.8,26.66-11.7,39.99
	c-3.17,10.82-6.33,21.65-9.5,32.47c-9.26,4.9-18.52,9.8-27.77,14.69c5.56-18.22,11.64-36.46,15.98-54.89
	c2.04-8.68-7.5-16.74-16.62-11.91c-4.28,2.27-5.28,6.32-6.45,10.31c-3.84,13.12-7.68,26.24-11.51,39.37
	c-3.11,10.63-6.22,21.26-9.33,31.9c-9.45,5-18.89,9.99-28.34,14.99c4.95-17.92,9.9-35.84,14.85-53.77c1.16-4.2,2-8.18-1.17-12.01
	c-0.92-1.12-2-1.97-3.17-2.6c-1.18-0.61-2.53-1.04-4.04-1.21c-5.2-0.6-8.55,2.06-11.94,5.08c-14.46,12.89-28.93,25.78-43.39,38.67
	c0-10,0-19.99,0-29.99c8.49-7.78,16.99-15.57,25.48-23.35c10.48-9.61,20.97-19.21,31.45-28.82c3.19-2.92,6.52-5.74,6.52-10.27
	c0-9.65-12.38-13.2-19.56-7.24c-15.25,12.66-29.45,26.6-43.89,40.13c0-9.79,0-19.59,0-29.39c8.65-7.92,17.3-15.85,25.94-23.77
	c10.65-9.76,21.3-19.52,31.95-29.28c3.18-2.91,6.45-5.72,6.45-10.23c0-9.61-12.38-13.19-19.55-7.24
	c-15.56,12.94-30.05,27.17-44.79,40.97c0-10.07,0-20.13,0-30.2c8.61-7.78,17.22-15.56,25.83-23.34
	c10.34-9.34,20.68-18.68,31.02-28.02c3.22-2.91,6.57-5.71,6.59-10.27c0.04-9.67-12.3-13.23-19.52-7.3
	c-15.23,12.52-29.46,26.26-43.92,39.6c0-13.24,0-26.47,0-39.71c0-2.09-1.94-3.87-4.22-3.87
	C822.48,112.92,819.94,112.92,817.41,112.92z M773.08,334.61c10.84,9.66,21.67,19.32,32.51,28.98c0,7.06,0,14.11,0,21.17
	c-0.31-0.16-0.62-0.33-0.93-0.49c-0.13-0.07-0.27-0.13-0.41-0.19c-0.02,0.14-0.03,0.28-0.03,0.42c0,0.33,0,0.66,0,0.99
	c-6.67-3.53-13.34-7.06-20-10.58C780.51,361.47,776.8,348.04,773.08,334.61z M861.74,334.61c-3.71,13.43-7.42,26.86-11.14,40.29
	c-6.67,3.53-13.34,7.06-20,10.58c0-0.33,0-0.66,0-0.99c0-0.14-0.01-0.28-0.03-0.42c-0.14,0.06-0.28,0.12-0.41,0.19
	c-0.31,0.16-0.62,0.33-0.93,0.49c0-7.06,0-14.11,0-21.17C840.06,353.93,850.9,344.27,861.74,334.61z M906.07,404.96
	c-14.55,3.77-29.1,7.54-43.65,11.31c-6.67-3.53-13.34-7.06-20.01-10.58c0.31-0.16,0.62-0.33,0.93-0.49
	c0.13-0.07,0.26-0.15,0.38-0.23c-0.12-0.08-0.25-0.16-0.38-0.23c-0.31-0.16-0.62-0.33-0.93-0.49c6.67-3.53,13.34-7.06,20.01-10.58
	C876.97,397.42,891.52,401.19,906.07,404.96z M861.74,475.32c-10.84-9.66-21.67-19.32-32.51-28.98c0-7.06,0-14.11,0-21.17
	c0.31,0.17,0.62,0.33,0.93,0.49c0.13,0.07,0.27,0.13,0.41,0.19c0.02-0.14,0.03-0.28,0.03-0.42c0-0.33,0-0.66,0-0.99
	c6.67,3.53,13.34,7.06,20,10.59C854.31,448.46,858.03,461.89,861.74,475.32z M773.08,475.32c3.71-13.43,7.42-26.86,11.14-40.29
	c6.67-3.53,13.34-7.06,20-10.59c0,0.33,0,0.66,0,0.99c0,0.14,0.01,0.28,0.03,0.42c0.14-0.06,0.28-0.12,0.41-0.19
	c0.31-0.16,0.62-0.33,0.93-0.49c0,7.06,0,14.11,0,21.17C794.76,455.99,783.92,465.66,773.08,475.32z M728.76,404.96
	c14.55-3.77,29.1-7.54,43.65-11.31c6.67,3.53,13.34,7.06,20.01,10.58c-0.31,0.16-0.62,0.33-0.93,0.49
	c-0.13,0.07-0.26,0.15-0.38,0.23c0.12,0.08,0.25,0.16,0.38,0.23c0.31,0.16,0.62,0.33,0.93,0.49c-6.67,3.53-13.34,7.06-20.01,10.58
	C757.85,412.5,743.31,408.73,728.76,404.96z"/>
</svg>
