<?xml version="1.0" encoding="utf-8"?>
<!-- Generator: Adobe Illustrator 27.6.1, SVG Export Plug-In . SVG Version: 6.00 Build 0)  -->
<svg version="1.1" id="Layer_1" xmlns="http://www.w3.org/2000/svg" xmlns:xlink="http://www.w3.org/1999/xlink" x="0px" y="0px"
	 viewBox="0 0 1920 1080" style="enable-background:new 0 0 1920 1080;" xml:space="preserve">
<style type="text/css">
	.st0{fill:#FFFFFF;}
</style>
<path class="st0" d="M959.82,266.82c-5.96-0.03-10.46,5.07-10.56,11.12c-0.13,7.73,0,15.46,0,23.19c0,3.3,0,6.59,0,9.89
	c-2.34-2.42-4.68-4.83-7.02-7.25c-2.98-3.07-5.95-6.14-8.93-9.21c-3.92-4.04-8.73-6.5-14.54-5.3c-9.28,1.91-14.03,13.16-9.04,21.18
	c1.34,2.15,3.31,3.93,5.06,5.74c6.67,6.89,13.35,13.78,20.02,20.67c4.82,4.97,9.63,9.94,14.45,14.91c0,5.52,0,11.04,0,16.56
	c-5.86-5.91-11.71-11.82-17.57-17.73c-10.79-10.89-21.57-21.77-32.35-32.65c-2.6-2.62-5.66-4.5-9.46-4.72
	c-8.69-0.5-15.5,7.81-13.49,16.24c1.12,4.73,5.45,8.16,8.74,11.48c12.15,12.26,24.29,24.52,36.44,36.77
	c6.18,6.24,12.36,12.47,18.54,18.71c3.05,3.08,6.01,6.32,9.16,9.31c0,18.47,0,36.93,0,55.4c-4.23-19.24-8.47-38.48-12.71-57.72
	c-0.67-3.05-1.34-6.1-2.01-9.15c-0.39-1.79-2.03-3.32-3.77-3.77c-19.09-4.92-38.17-9.85-57.25-14.77c-2.72-0.7-5.44-1.4-8.16-2.1
	c-0.6-0.15-1.22-0.2-1.83-0.15c-0.35,0.5-0.62,1.06-0.78,1.66c-0.75,2.7-1.51,5.41-2.26,8.11c-5.28,18.99-10.56,37.98-15.84,56.97
	c-0.48,1.73,0.03,3.92,1.38,5.15c2.3,2.11,4.61,4.21,6.91,6.32c14.55,13.29,29.09,26.58,43.63,39.86
	c-15.99-9.23-31.98-18.46-47.98-27.7c-1.01-4.22-2.34-8.41-3.48-12.59c-2.31-8.47-4.62-16.94-6.93-25.41
	c-4.54-16.65-9.08-33.3-13.63-49.94c-1.23-4.51-2.04-9.97-5.57-13.3c-6.3-5.95-16.89-4.21-20.81,3.57
	c-1.71,3.4-1.62,6.99-0.64,10.55c4.03,14.78,8.07,29.56,12.1,44.35c2.19,8.03,4.38,16.06,6.57,24.08
	c-4.78-2.76-9.56-5.52-14.34-8.28c-1.9-6.66-3.79-13.31-5.69-19.97c-2.63-9.23-5.26-18.45-7.89-27.67
	c-0.69-2.42-1.25-5.02-2.44-7.25c-4.44-8.33-16.57-9.84-22.86-2.76c-3.94,4.43-4.22,9.83-2.68,15.25c1.17,4.11,2.34,8.23,3.52,12.34
	c0.92,3.24,1.84,6.47,2.77,9.71c-2.86-1.65-5.71-3.3-8.57-4.95c-6.69-3.86-13.33-7.85-20.08-11.59c-5.28-2.93-11.95-1.59-14.91,3.59
	c-3.01,5.15-0.84,11.59,4.35,14.7c6.62,3.98,13.39,7.73,20.08,11.6c2.85,1.65,5.71,3.3,8.57,4.95c-3.26,0.82-6.53,1.64-9.79,2.46
	c-4.15,1.04-8.29,2.08-12.44,3.12c-5.46,1.37-10,4.31-11.86,9.94c-2.98,8.99,4.39,18.74,13.82,18.42c2.53-0.08,5.05-0.9,7.5-1.51
	c9.3-2.33,18.61-4.67,27.91-7.01c6.71-1.68,13.43-3.37,20.14-5.06c4.78,2.76,9.56,5.52,14.34,8.28c-8.05,2.12-16.1,4.23-24.14,6.35
	c-14.82,3.9-29.64,7.8-44.46,11.69c-3.57,0.94-6.73,2.65-8.82,5.83c-4.78,7.28-0.99,17.32,7.32,19.8c4.66,1.39,9.79-0.64,14.31-1.83
	c16.69-4.39,33.38-8.78,50.07-13.17c8.49-2.23,16.98-4.47,25.47-6.7c4.19-1.1,8.48-2.04,12.64-3.28
	c15.99,9.23,31.98,18.47,47.98,27.7c-18.78-5.95-37.56-11.9-56.34-17.86c-2.97-0.94-5.95-1.89-8.93-2.83
	c-1.74-0.55-3.89,0.1-5.15,1.38c-13.8,14.07-27.61,28.13-41.42,42.2c-1.97,2-3.93,4.01-5.9,6.01c-0.44,0.44-0.79,0.96-1.04,1.51
	c0.26,0.55,0.6,1.06,1.04,1.51c1.97,2,3.93,4.01,5.9,6.01c13.8,14.07,27.61,28.13,41.42,42.2c1.26,1.28,3.41,1.93,5.15,1.38
	c2.98-0.94,5.95-1.89,8.93-2.83c18.78-5.95,37.56-11.9,56.34-17.85c-15.99,9.23-31.98,18.46-47.98,27.7
	c-4.16-1.24-8.46-2.18-12.64-3.28c-8.49-2.23-16.98-4.47-25.47-6.7c-16.69-4.39-33.38-8.78-50.07-13.17
	c-4.52-1.19-9.65-3.22-14.31-1.83c-8.3,2.48-12.09,12.52-7.32,19.8c2.09,3.18,5.25,4.9,8.82,5.84c14.82,3.9,29.64,7.79,44.46,11.69
	c8.05,2.12,16.1,4.23,24.14,6.35c-4.78,2.76-9.56,5.52-14.34,8.28c-6.71-1.69-13.43-3.37-20.14-5.06
	c-9.3-2.34-18.61-4.67-27.91-7.01c-2.44-0.61-4.97-1.43-7.5-1.51c-9.44-0.32-16.8,9.43-13.82,18.42c1.87,5.63,6.41,8.57,11.86,9.94
	c4.15,1.04,8.3,2.08,12.44,3.12c3.26,0.82,6.53,1.64,9.79,2.46c-2.86,1.65-5.71,3.3-8.57,4.94c-6.69,3.86-13.46,7.62-20.08,11.6
	c-5.18,3.11-7.36,9.56-4.35,14.71c2.95,5.18,9.62,6.52,14.91,3.59c6.76-3.75,13.39-7.73,20.08-11.59c2.86-1.65,5.71-3.3,8.57-4.95
	c-0.92,3.23-1.84,6.47-2.77,9.71c-1.17,4.11-2.34,8.22-3.52,12.34c-1.54,5.42-1.27,10.81,2.68,15.25c6.3,7.08,18.42,5.57,22.86-2.76
	c1.19-2.24,1.75-4.83,2.44-7.25c2.63-9.23,5.26-18.45,7.89-27.68c1.9-6.66,3.79-13.31,5.69-19.97c4.78-2.76,9.56-5.52,14.34-8.28
	c-2.19,8.03-4.38,16.05-6.57,24.08c-4.03,14.78-8.07,29.56-12.1,44.34c-0.97,3.56-1.07,7.15,0.64,10.56
	c3.91,7.78,14.51,9.52,20.81,3.57c3.53-3.34,4.34-8.8,5.57-13.3c4.54-16.65,9.09-33.3,13.63-49.95c2.31-8.47,4.62-16.94,6.93-25.41
	c1.14-4.18,2.47-8.36,3.48-12.59c15.99-9.23,31.98-18.46,47.98-27.7c-14.54,13.29-29.09,26.58-43.63,39.87
	c-2.3,2.1-4.61,4.21-6.91,6.32c-1.35,1.23-1.86,3.42-1.38,5.15c5.28,18.99,10.56,37.98,15.84,56.97c0.75,2.71,1.51,5.41,2.26,8.11
	c0.17,0.6,0.43,1.16,0.78,1.66c0.61,0.05,1.22,0.01,1.83-0.15c2.72-0.7,5.44-1.4,8.16-2.1c19.09-4.92,38.17-9.84,57.25-14.77
	c1.74-0.45,3.38-1.98,3.77-3.77c0.67-3.05,1.34-6.1,2.01-9.15c4.24-19.24,8.47-38.48,12.71-57.72c0,18.47,0,36.93,0,55.4
	c-3.15,2.99-6.11,6.23-9.16,9.31c-6.18,6.24-12.36,12.47-18.54,18.71c-12.15,12.26-24.29,24.51-36.44,36.77
	c-3.29,3.32-7.61,6.75-8.74,11.47c-2.01,8.43,4.8,16.74,13.49,16.24c3.8-0.22,6.87-2.1,9.46-4.72
	c10.79-10.88,21.57-21.77,32.35-32.65c5.86-5.91,11.71-11.82,17.57-17.73c0,5.52,0,11.04,0,16.56c-4.82,4.97-9.63,9.94-14.45,14.91
	c-6.67,6.89-13.35,13.78-20.02,20.67c-1.75,1.81-3.72,3.59-5.06,5.74c-4.99,8.02-0.24,19.27,9.04,21.18
	c5.81,1.2,10.62-1.26,14.54-5.3c2.98-3.07,5.95-6.14,8.93-9.21c2.34-2.42,4.68-4.83,7.02-7.25c0,3.3,0,6.59,0,9.89
	c0,7.72-0.13,15.46,0,23.19c0.1,6.04,4.6,11.15,10.56,11.12c5.96,0.03,10.46-5.07,10.56-11.12c0.13-7.72,0-15.46,0-23.19
	c0-3.3,0-6.59,0-9.89c2.34,2.42,4.68,4.83,7.02,7.25c2.97,3.07,5.95,6.14,8.93,9.21c3.92,4.04,8.73,6.5,14.54,5.3
	c9.28-1.91,14.03-13.17,9.04-21.18c-1.34-2.15-3.31-3.93-5.06-5.74c-6.67-6.89-13.35-13.78-20.02-20.67
	c-4.82-4.97-9.63-9.94-14.45-14.91c0-5.52,0-11.04,0-16.56c5.86,5.91,11.71,11.82,17.57,17.73c10.79,10.88,21.57,21.77,32.35,32.65
	c2.6,2.62,5.66,4.5,9.46,4.72c8.69,0.5,15.5-7.81,13.49-16.24c-1.12-4.73-5.45-8.16-8.74-11.47
	c-12.15-12.26-24.29-24.52-36.44-36.77c-6.18-6.24-12.36-12.47-18.54-18.71c-3.05-3.08-6.01-6.32-9.16-9.31c0-18.47,0-36.93,0-55.4
	c4.23,19.24,8.47,38.48,12.71,57.72c0.67,3.05,1.34,6.1,2.01,9.15c0.39,1.79,2.03,3.32,3.77,3.77c19.08,4.92,38.17,9.85,57.25,14.77
	c2.72,0.7,5.44,1.4,8.16,2.1c0.6,0.15,1.22,0.2,1.83,0.15c0.35-0.5,0.62-1.06,0.78-1.66c0.75-2.71,1.51-5.41,2.26-8.11
	c5.28-18.99,10.56-37.98,15.84-56.97c0.48-1.73-0.03-3.92-1.38-5.15c-2.31-2.11-4.61-4.21-6.92-6.32
	c-14.55-13.29-29.09-26.58-43.63-39.87c15.99,9.23,31.98,18.46,47.98,27.7c1.01,4.23,2.34,8.41,3.48,12.59
	c2.31,8.47,4.62,16.94,6.94,25.41c4.54,16.65,9.08,33.3,13.63,49.95c1.23,4.51,2.04,9.97,5.57,13.3c6.3,5.95,16.9,4.21,20.81-3.57
	c1.71-3.4,1.61-6.99,0.64-10.56c-4.03-14.78-8.07-29.56-12.1-44.34c-2.19-8.03-4.38-16.05-6.57-24.08
	c4.78,2.76,9.56,5.52,14.34,8.28c1.9,6.66,3.8,13.31,5.69,19.97c2.63,9.23,5.26,18.45,7.89,27.68c0.69,2.42,1.25,5.01,2.44,7.25
	c4.44,8.33,16.57,9.84,22.86,2.76c3.94-4.43,4.22-9.83,2.68-15.25c-1.17-4.11-2.34-8.22-3.52-12.34c-0.92-3.24-1.84-6.47-2.77-9.71
	c2.85,1.65,5.71,3.3,8.56,4.95c6.69,3.86,13.33,7.84,20.08,11.59c5.28,2.93,11.95,1.59,14.91-3.59c3.01-5.15,0.84-11.6-4.35-14.71
	c-6.62-3.98-13.39-7.73-20.08-11.6c-2.85-1.65-5.71-3.3-8.57-4.94c3.26-0.82,6.53-1.64,9.79-2.46c4.15-1.04,8.3-2.08,12.44-3.12
	c5.46-1.37,10-4.31,11.86-9.94c2.98-8.99-4.38-18.74-13.82-18.42c-2.53,0.09-5.05,0.9-7.5,1.51c-9.3,2.34-18.61,4.67-27.91,7.01
	c-6.71,1.69-13.43,3.37-20.14,5.06c-4.78-2.76-9.56-5.52-14.34-8.28c8.05-2.12,16.1-4.23,24.14-6.35
	c14.82-3.9,29.64-7.79,44.46-11.69c3.57-0.94,6.73-2.65,8.82-5.84c4.78-7.28,0.99-17.33-7.32-19.8c-4.65-1.39-9.79,0.64-14.31,1.83
	c-16.69,4.39-33.38,8.78-50.07,13.17c-8.49,2.23-16.98,4.47-25.47,6.7c-4.19,1.1-8.48,2.04-12.64,3.28
	c-15.99-9.23-31.98-18.47-47.97-27.7c18.78,5.95,37.56,11.9,56.34,17.85c2.97,0.94,5.95,1.89,8.93,2.83
	c1.74,0.55,3.89-0.1,5.15-1.38c13.8-14.07,27.61-28.13,41.41-42.2c1.97-2,3.93-4.01,5.9-6.01c0.44-0.45,0.79-0.96,1.04-1.51
	c-0.26-0.55-0.6-1.06-1.04-1.51c-1.97-2-3.93-4.01-5.9-6.01c-13.8-14.07-27.61-28.13-41.41-42.2c-1.26-1.28-3.41-1.93-5.15-1.38
	c-2.97,0.94-5.95,1.89-8.93,2.83c-18.78,5.95-37.56,11.9-56.34,17.86c15.99-9.23,31.98-18.47,47.97-27.7
	c4.16,1.24,8.46,2.18,12.64,3.28c8.49,2.23,16.98,4.47,25.47,6.7c16.69,4.39,33.38,8.78,50.07,13.17c4.52,1.19,9.65,3.22,14.31,1.83
	c8.3-2.48,12.1-12.52,7.32-19.8c-2.09-3.18-5.25-4.9-8.82-5.83c-14.82-3.9-29.64-7.8-44.46-11.69c-8.05-2.12-16.09-4.23-24.14-6.35
	c4.78-2.76,9.56-5.52,14.34-8.28c6.71,1.68,13.43,3.37,20.14,5.06c9.3,2.34,18.61,4.67,27.91,7.01c2.44,0.61,4.97,1.43,7.5,1.51
	c9.44,0.32,16.81-9.43,13.82-18.42c-1.87-5.63-6.4-8.57-11.86-9.94c-4.15-1.04-8.29-2.08-12.44-3.12c-3.26-0.82-6.53-1.64-9.79-2.46
	c2.85-1.65,5.71-3.3,8.57-4.95c6.69-3.86,13.46-7.62,20.08-11.6c5.18-3.11,7.36-9.56,4.35-14.7c-2.95-5.18-9.62-6.52-14.91-3.59
	c-6.76,3.75-13.39,7.73-20.08,11.59c-2.85,1.65-5.71,3.3-8.56,4.95c0.92-3.24,1.84-6.47,2.77-9.71c1.17-4.11,2.34-8.23,3.52-12.34
	c1.54-5.41,1.27-10.81-2.68-15.25c-6.3-7.08-18.42-5.57-22.86,2.76c-1.19,2.24-1.75,4.83-2.44,7.25
	c-2.63,9.23-5.26,18.45-7.89,27.67c-1.9,6.66-3.8,13.31-5.69,19.97c-4.78,2.76-9.56,5.52-14.34,8.28
	c2.19-8.03,4.38-16.05,6.57-24.08c4.03-14.78,8.07-29.56,12.1-44.35c0.97-3.56,1.07-7.15-0.64-10.55
	c-3.91-7.78-14.51-9.52-20.81-3.57c-3.53,3.33-4.34,8.8-5.57,13.3c-4.54,16.65-9.09,33.3-13.63,49.94
	c-2.31,8.47-4.62,16.94-6.94,25.41c-1.14,4.18-2.47,8.36-3.48,12.59c-15.99,9.23-31.98,18.47-47.98,27.7
	c14.54-13.29,29.09-26.58,43.63-39.86c2.3-2.11,4.61-4.21,6.92-6.32c1.35-1.23,1.86-3.42,1.38-5.15
	c-5.28-18.99-10.56-37.98-15.84-56.97c-0.75-2.7-1.51-5.41-2.26-8.11c-0.17-0.6-0.43-1.16-0.78-1.66c-0.61-0.05-1.22-0.01-1.83,0.15
	c-2.72,0.7-5.44,1.4-8.16,2.1c-19.08,4.92-38.17,9.85-57.25,14.77c-1.74,0.45-3.38,1.98-3.77,3.77c-0.67,3.05-1.34,6.1-2.01,9.15
	c-4.24,19.24-8.47,38.48-12.71,57.72c0-18.47,0-36.93,0-55.4c3.15-2.99,6.11-6.23,9.16-9.31c6.18-6.24,12.36-12.47,18.54-18.71
	c12.15-12.26,24.29-24.52,36.44-36.77c3.29-3.32,7.61-6.75,8.74-11.48c2.01-8.43-4.8-16.74-13.49-16.24
	c-3.8,0.22-6.86,2.1-9.46,4.72c-10.79,10.89-21.57,21.77-32.35,32.65c-5.86,5.91-11.71,11.82-17.57,17.73c0-5.52,0-11.04,0-16.56
	c4.82-4.97,9.63-9.94,14.45-14.91c6.68-6.89,13.35-13.78,20.02-20.67c1.75-1.81,3.72-3.59,5.06-5.74
	c4.99-8.02,0.24-19.27-9.04-21.18c-5.81-1.2-10.62,1.26-14.54,5.3c-2.97,3.07-5.95,6.14-8.93,9.21c-2.34,2.42-4.68,4.83-7.02,7.25
	c0-3.3,0-6.59,0-9.89c0-7.73,0.13-15.46,0-23.19C970.28,271.9,965.78,266.79,959.82,266.82z M874.13,391.8
	c3.8,0.98,7.59,1.96,11.39,2.94c10.42,2.69,20.84,5.38,31.26,8.06c1.36,0.35,2.73,0.7,4.09,1.05c1.33,6.05,2.66,12.1,3.99,18.14
	c1.72,7.8,3.44,15.59,5.15,23.39c-0.79-0.51-1.63-0.97-2.57-1.33c-4.92-1.92-11.01-0.18-14.34,3.86c-1.58,1.91-2.54,4.1-2.91,6.36
	c-2.14-0.81-4.52-1.07-6.96-0.66c-5.17,0.86-9.71,5.26-10.51,10.49c-0.15,1-0.18,1.95-0.13,2.89c-5.89-5.39-11.79-10.77-17.68-16.16
	c-4.57-4.18-9.14-8.35-13.72-12.53c0.38-1.36,0.76-2.72,1.13-4.07c2.88-10.37,5.76-20.73,8.65-31.1
	C872.03,399.36,873.08,395.58,874.13,391.8z M1045.51,391.8c1.05,3.78,2.1,7.55,3.15,11.33c2.88,10.36,5.77,20.73,8.65,31.1
	c0.38,1.36,0.76,2.71,1.13,4.07c-4.57,4.18-9.15,8.35-13.72,12.53c-5.89,5.39-11.79,10.77-17.68,16.16
	c0.05-0.94,0.02-1.89-0.13-2.89c-0.8-5.22-5.35-9.63-10.51-10.49c-2.45-0.41-4.82-0.14-6.96,0.66c-0.37-2.25-1.33-4.44-2.9-6.36
	c-3.33-4.05-9.41-5.78-14.34-3.86c-0.94,0.37-1.78,0.82-2.57,1.33c1.72-7.8,3.44-15.6,5.15-23.39c1.33-6.05,2.66-12.1,3.99-18.14
	c1.36-0.35,2.73-0.7,4.09-1.05c10.42-2.69,20.84-5.38,31.25-8.06C1037.92,393.76,1041.72,392.78,1045.51,391.8z M1131.21,540.23
	c-2.75,2.8-5.49,5.6-8.24,8.39c-7.53,7.68-15.07,15.36-22.61,23.04c-0.99,1.01-1.97,2.01-2.96,3.02c-5.9-1.87-11.81-3.74-17.71-5.61
	c-7.61-2.41-15.22-4.82-22.83-7.24c0.84-0.42,1.65-0.93,2.44-1.56c4.12-3.3,5.66-9.44,3.82-14.35c-0.87-2.32-2.29-4.25-4.06-5.7
	c1.77-1.45,3.18-3.37,4.06-5.7c1.84-4.9,0.3-11.04-3.82-14.35c-0.79-0.63-1.6-1.14-2.44-1.56c7.61-2.41,15.22-4.82,22.83-7.23
	c5.9-1.87,11.81-3.74,17.71-5.61c0.99,1.01,1.97,2.01,2.96,3.02c7.54,7.68,15.07,15.36,22.61,23.04
	C1125.72,534.63,1128.46,537.43,1131.21,540.23z M1045.51,688.65c-3.8-0.98-7.59-1.96-11.39-2.94c-10.42-2.69-20.84-5.37-31.25-8.06
	c-1.36-0.35-2.73-0.71-4.09-1.06c-1.33-6.05-2.66-12.1-3.99-18.14c-1.72-7.8-3.43-15.59-5.15-23.39c0.79,0.51,1.63,0.96,2.57,1.33
	c4.92,1.92,11.01,0.18,14.34-3.86c1.58-1.91,2.54-4.11,2.9-6.36c2.14,0.81,4.52,1.07,6.96,0.66c5.17-0.86,9.71-5.26,10.51-10.48
	c0.15-1,0.18-1.96,0.13-2.89c5.89,5.39,11.79,10.77,17.68,16.16c4.57,4.18,9.14,8.35,13.72,12.53c-0.38,1.36-0.75,2.72-1.13,4.07
	c-2.88,10.37-5.76,20.73-8.65,31.1C1047.61,681.1,1046.56,684.88,1045.51,688.65z M874.13,688.65c-1.05-3.78-2.1-7.55-3.15-11.33
	c-2.88-10.37-5.77-20.73-8.65-31.1c-0.38-1.36-0.76-2.72-1.13-4.07c4.57-4.18,9.15-8.36,13.72-12.53
	c5.89-5.39,11.79-10.77,17.68-16.16c-0.05,0.94-0.02,1.89,0.13,2.89c0.8,5.22,5.35,9.63,10.51,10.48c2.44,0.41,4.82,0.14,6.96-0.66
	c0.37,2.25,1.33,4.45,2.91,6.36c3.32,4.04,9.41,5.78,14.34,3.86c0.94-0.37,1.78-0.82,2.57-1.33c-1.72,7.8-3.43,15.59-5.15,23.39
	c-1.33,6.05-2.66,12.1-3.99,18.14c-1.36,0.35-2.73,0.7-4.09,1.06c-10.42,2.69-20.84,5.37-31.26,8.06
	C881.72,686.7,877.92,687.68,874.13,688.65z M788.43,540.23c2.75-2.8,5.49-5.59,8.24-8.39c7.53-7.68,15.07-15.36,22.61-23.04
	c0.99-1.01,1.97-2.01,2.96-3.02c5.9,1.87,11.81,3.74,17.71,5.61c7.61,2.41,15.22,4.82,22.83,7.23c-0.84,0.43-1.65,0.93-2.44,1.56
	c-4.12,3.31-5.66,9.44-3.83,14.35c0.87,2.32,2.29,4.25,4.06,5.7c-1.77,1.45-3.18,3.38-4.06,5.7c-1.84,4.9-0.3,11.04,3.83,14.35
	c0.79,0.63,1.6,1.14,2.44,1.56c-7.61,2.41-15.22,4.82-22.83,7.24c-5.9,1.87-11.81,3.74-17.71,5.61c-0.99-1.01-1.97-2.01-2.96-3.02
	c-7.54-7.68-15.07-15.36-22.61-23.04C793.93,545.83,791.18,543.03,788.43,540.23z M921.2,473.34c5.67,5.82,11.34,11.65,17,17.47
	c0.78,0.8,1.56,1.6,2.34,2.4c1.62,7.34,3.23,14.68,4.85,22.02c-5.55-5.07-11.1-10.14-16.65-15.21c-0.3-1.08-0.61-2.15-0.91-3.23
	C925.62,488.98,923.41,481.16,921.2,473.34z M998.44,473.34c-2.21,7.82-4.42,15.64-6.63,23.46c-0.31,1.07-0.61,2.15-0.91,3.23
	c-5.55,5.07-11.1,10.14-16.65,15.21c1.62-7.34,3.23-14.68,4.85-22.02c0.78-0.8,1.56-1.6,2.34-2.4
	C987.1,484.99,992.77,479.16,998.44,473.34z M1037.06,540.23c-7.88,2-15.76,3.99-23.63,5.99c-1.08,0.28-2.17,0.55-3.25,0.82
	c-7.17-2.27-14.33-4.54-21.5-6.81c7.17-2.27,14.33-4.54,21.5-6.81c1.08,0.27,2.17,0.55,3.25,0.82
	C1021.3,536.24,1029.18,538.23,1037.06,540.23z M998.44,607.12c-5.67-5.83-11.34-11.65-17-17.48c-0.78-0.8-1.56-1.6-2.34-2.4
	c-1.62-7.34-3.23-14.68-4.85-22.02c5.55,5.07,11.1,10.14,16.65,15.21c0.3,1.08,0.61,2.15,0.91,3.22
	C994.02,591.48,996.23,599.3,998.44,607.12z M921.2,607.12c2.21-7.82,4.42-15.64,6.63-23.46c0.3-1.07,0.61-2.15,0.91-3.22
	c5.55-5.07,11.1-10.14,16.65-15.21c-1.62,7.34-3.23,14.68-4.85,22.02c-0.78,0.8-1.56,1.6-2.34,2.4
	C932.54,595.47,926.87,601.3,921.2,607.12z M882.58,540.23c7.88-1.99,15.76-3.99,23.63-5.99c1.08-0.27,2.17-0.55,3.25-0.82
	c7.17,2.27,14.33,4.54,21.5,6.81c-7.17,2.27-14.33,4.54-21.5,6.81c-1.08-0.28-2.17-0.55-3.25-0.82
	C898.34,544.22,890.46,542.23,882.58,540.23z"/>
</svg>
